<svg width="84" height="61" viewBox="0 0 84 61" fill="none" xmlns="http://www.w3.org/2000/svg">
<g clip-path="url(#clip0_0_1827)">
<path d="M47.6209 30.1525H44.2832V44.3297H47.6209V30.1525Z" fill="#3D408A"/>
<path d="M54.4715 36.3876C53.9448 36.3876 53.5179 35.9653 53.5179 35.4476V31.8874C53.5542 30.5614 55.525 30.5569 55.5614 31.8874V34.612H57.2961V32.7366C57.1462 29.1401 51.9331 29.1401 51.7832 32.7366V36.0561C51.7877 36.2877 51.8649 36.9779 52.5325 37.2913C52.1919 37.4547 51.7832 37.7999 51.7832 38.5401V41.8233C51.9331 45.4198 57.1462 45.4198 57.2961 41.8233V38.1041H58.4586V36.3876H54.4715ZM54.5442 43.6806C53.9811 43.6806 53.5224 43.2265 53.5224 42.6724V39.0441C53.5224 38.5264 53.9493 38.1041 54.4761 38.1041H55.5659V42.677C55.5659 43.231 55.1073 43.6851 54.5442 43.6851" fill="#3D408A"/>
<path d="M4.40415 44.3281C4.39961 38.0478 3.99545 29.5152 6.98802 24.5382C7.34676 23.9024 7.88261 23.916 8.24135 24.5563C10.7435 28.9339 10.9387 36.1043 10.798 44.3281H14.2719V38.3566C14.2719 30.1328 10.8933 25.8142 8.93614 24.0023C8.19594 23.3166 7.06976 23.303 6.32502 23.9842C0.657768 29.2654 0.912068 37.3167 0.930232 44.3281H4.40415Z" fill="#3D408A"/>
<path d="M21.9453 44.3297V34.5256C21.9453 32.8863 23.1986 31.5557 24.738 31.5557C26.2774 31.5557 27.5262 32.8817 27.5262 34.521V44.3343H31.0319V34.5301C31.0319 32.8908 32.2853 31.5603 33.8247 31.5603C35.3641 31.5603 36.6129 32.8863 36.6129 34.5256V44.3388H40.1186V36.7416C40.1504 30.8292 33.2298 27.7276 29.2791 32.1188C25.3238 27.7276 18.4078 30.8337 18.4396 36.7416V44.3388H21.9453V44.3297Z" fill="#3D408A"/>
<path d="M65.3939 44.3281V27.9257C65.3939 26.3 66.6472 24.9786 68.1866 24.9786C69.726 24.9786 70.9748 26.2955 70.9748 27.9167V44.3235H74.4851V27.9212C74.4851 26.2955 75.7384 24.974 77.2778 24.974C78.8173 24.974 80.066 26.291 80.066 27.9121V44.319H83.5718V30.1055C83.6035 24.2429 76.6875 21.1686 72.7322 25.519C68.7769 21.1641 61.8609 24.2429 61.8927 30.1055V44.319H65.3984L65.3939 44.3281Z" fill="#3D408A"/>
<path d="M8.48455 34.7913C7.99411 35.2817 7.20397 35.2817 6.71353 34.7913C6.22309 34.3009 6.22309 33.5107 6.71353 33.0203C7.20397 32.5299 7.99411 32.5299 8.48455 33.0203C8.97498 33.5107 8.97498 34.3009 8.48455 34.7913Z" fill="#85B658"/>
<path d="M44.4632 24.0941C45.276 23.2813 46.5975 23.2813 47.4103 24.0941C48.2232 24.907 48.2232 26.2284 47.4103 27.0413C46.5975 27.8541 45.276 27.8541 44.4632 27.0413C43.6503 26.2284 43.6503 24.907 44.4632 24.0941Z" fill="#3F469D"/>
<path d="M48.8983 14.1933C49.8746 13.217 51.4594 13.217 52.4358 14.1933C53.4121 15.1696 53.4121 16.7545 52.4358 17.7308C51.4594 18.7071 49.8746 18.7071 48.8983 17.7308C47.9219 16.7545 47.9219 15.1696 48.8983 14.1933Z" fill="#AB7BA5"/>
<path d="M57.8881 6.01123C59.0279 4.87142 60.8761 4.87142 62.0159 6.01123C63.1557 7.15104 63.1557 8.99925 62.0159 10.1391C60.8761 11.2789 59.0279 11.2789 57.8881 10.1391C56.7483 8.99925 56.7483 7.15104 57.8881 6.01123Z" fill="#DF6580"/>
<path d="M70.3857 1.65337C71.689 0.350082 73.8006 0.350082 75.1038 1.65337C76.4071 2.95666 76.4071 5.06825 75.1038 6.37154C73.8006 7.67483 71.689 7.67483 70.3857 6.37154C69.0824 5.06825 69.0824 2.95666 70.3857 1.65337Z" fill="#CB1B3C"/>
<path d="M14.0893 24.1773C13.5716 24.695 12.736 24.695 12.2183 24.1773C11.7007 23.6596 11.7007 22.824 12.2183 22.3064C12.736 21.7887 13.5716 21.7887 14.0893 22.3064C14.6069 22.824 14.6069 23.6596 14.0893 24.1773Z" fill="#27B462"/>
<path d="M19.6855 16.9644C20.2577 16.3922 21.1795 16.3922 21.7517 16.9644C22.3193 17.5366 22.3193 18.4584 21.7517 19.0261C21.1795 19.5982 20.2577 19.5982 19.6855 19.0261C19.1179 18.4539 19.1179 17.532 19.6855 16.9644Z" fill="#00B2D4"/>
<path d="M28.6765 15.1786C29.3259 14.5292 30.3839 14.5292 31.0333 15.1786C31.6827 15.8279 31.6827 16.886 31.0333 17.5354C30.3839 18.1847 29.3259 18.1847 28.6765 17.5354C28.0271 16.886 28.0271 15.8279 28.6765 15.1786Z" fill="#0098D2"/>
<path d="M37.7534 17.4625C38.4845 16.7314 39.6743 16.7314 40.4054 17.4625C41.1365 18.1936 41.1365 19.3834 40.4054 20.1145C39.6743 20.8456 38.4845 20.8456 37.7534 20.1145C37.0223 19.3834 37.0223 18.1936 37.7534 17.4625Z" fill="#4189C5"/>
</g>
<path d="M11.2183 53.6733C11.3268 53.7728 11.3811 53.8994 11.3811 54.0487C11.3811 54.0984 11.3721 54.1527 11.3585 54.2115L9.78918 58.9014C9.75752 58.9918 9.70325 59.0642 9.62184 59.1184C9.54044 59.1727 9.4545 59.1999 9.35953 59.2089C9.26455 59.2089 9.17411 59.1818 9.08819 59.1275C9.00226 59.0732 8.93894 58.9963 8.88919 58.8923L7.75856 56.2828L6.61887 58.8923C6.56912 58.9963 6.5058 59.0732 6.41987 59.1275C6.33395 59.1818 6.24351 59.2089 6.14853 59.2089C6.05356 59.2044 5.9631 59.1727 5.88622 59.1184C5.80481 59.0642 5.75054 58.9918 5.71888 58.9014L4.14956 54.2115C4.13147 54.1527 4.12695 54.0984 4.12695 54.0487C4.12695 53.8994 4.18122 53.7728 4.28976 53.6733C4.3983 53.5738 4.5204 53.5241 4.65156 53.5241C4.75557 53.5241 4.85507 53.5512 4.93648 53.61C5.02241 53.6643 5.08121 53.7411 5.11286 53.8406L6.3023 57.4949L7.33795 54.9713C7.37865 54.8763 7.44197 54.7994 7.52338 54.7406C7.60478 54.6864 7.69524 54.6592 7.79473 54.6637C7.89423 54.6592 7.98468 54.6818 8.06156 54.7406C8.13844 54.7949 8.19723 54.8718 8.24246 54.9713L9.22386 57.4677L10.4042 53.8361C10.4359 53.7411 10.4947 53.6643 10.5851 53.6055C10.6711 53.5512 10.7706 53.5195 10.8746 53.5195C11.0012 53.5195 11.1188 53.5693 11.2273 53.6688L11.2183 53.6733Z" fill="#3E4089"/>
<path d="M15.6952 57.261C15.6002 57.3425 15.4872 57.3832 15.3605 57.3832H12.7284C12.7917 57.6997 12.9365 57.9485 13.1671 58.1294C13.3932 58.3103 13.651 58.4007 13.9405 58.4007C14.1575 58.4007 14.3294 58.3826 14.4515 58.3419C14.5736 58.3012 14.6686 58.2605 14.741 58.2108C14.8133 58.1656 14.8631 58.1339 14.8902 58.1158C14.9852 58.0661 15.0756 58.0434 15.1615 58.0434C15.2746 58.0434 15.3696 58.0842 15.4465 58.1656C15.5234 58.247 15.5641 58.3419 15.5641 58.446C15.5641 58.5907 15.4872 58.7218 15.3425 58.8439C15.1932 58.966 14.9942 59.0746 14.7455 59.1605C14.4967 59.2464 14.2435 59.2917 13.9902 59.2917C13.5425 59.2917 13.1535 59.1967 12.8234 59.0067C12.4887 58.8168 12.2355 58.559 12.0546 58.2289C11.8737 57.8987 11.7832 57.5234 11.7832 57.1073C11.7832 56.6415 11.8782 56.2389 12.0681 55.8862C12.2581 55.5334 12.5113 55.2666 12.8234 55.0812C13.1355 54.8958 13.4701 54.8008 13.8274 54.8008C14.1847 54.8008 14.5103 54.8957 14.8178 55.0902C15.1254 55.2847 15.3786 55.547 15.5641 55.8726C15.7495 56.2028 15.8445 56.5555 15.8445 56.94C15.8399 57.0711 15.7902 57.1751 15.6952 57.2565V57.261ZM12.742 56.5736H14.8314V56.5193C14.8088 56.2932 14.7003 56.0988 14.5058 55.9359C14.3113 55.7731 14.0852 55.6917 13.8364 55.6917C13.2214 55.6917 12.855 55.9857 12.7465 56.5736H12.742Z" fill="#3E4089"/>
<path d="M20.4423 54.9365C20.5328 55.0269 20.578 55.1445 20.578 55.2937V58.7128C20.578 58.853 20.5328 58.9706 20.4423 59.0655C20.3519 59.1605 20.2388 59.2057 20.0986 59.2057C19.9584 59.2057 19.8499 59.1605 19.7594 59.0701C19.6735 58.9796 19.6237 58.862 19.6192 58.7218C19.4881 58.8801 19.3072 59.0113 19.081 59.1198C18.8549 59.2283 18.6152 59.2871 18.3665 59.2871C18.0001 59.2871 17.67 59.1922 17.3715 59.0022C17.073 58.8123 16.8378 58.5454 16.666 58.2063C16.4941 57.8671 16.4082 57.4827 16.4082 57.0485C16.4082 56.6143 16.4941 56.2299 16.6615 55.8862C16.8288 55.5425 17.064 55.2757 17.3579 55.0857C17.6519 54.8958 17.9775 54.8008 18.3348 54.8008C18.5881 54.8008 18.8278 54.846 19.0539 54.941C19.2755 55.036 19.4654 55.1535 19.6192 55.3028V55.2937C19.6192 55.1535 19.6644 55.036 19.7549 54.941C19.8453 54.846 19.9584 54.8008 20.0986 54.8008C20.2388 54.8008 20.3519 54.846 20.4423 54.9365ZM19.3343 58.0163C19.5514 57.7585 19.6599 57.4374 19.6599 57.0485C19.6599 56.6595 19.5514 56.3385 19.3343 56.0761C19.1172 55.8184 18.8368 55.6872 18.4886 55.6872C18.1403 55.6872 17.869 55.8184 17.6519 56.0761C17.4348 56.3339 17.3263 56.6595 17.3263 57.0485C17.3263 57.4374 17.4348 57.7585 17.6474 58.0163C17.8645 58.2741 18.1403 58.4007 18.4886 58.4007C18.8368 58.4007 19.1172 58.2741 19.3343 58.0163Z" fill="#3E4089"/>
<path d="M22.508 59.0658C22.4131 59.1608 22.3 59.206 22.1598 59.206C22.0196 59.206 21.9156 59.1608 21.8251 59.0658C21.7347 58.9708 21.6895 58.8532 21.6895 58.713V53.7156C21.6895 53.5754 21.7347 53.4578 21.8297 53.3629C21.9246 53.2679 22.0377 53.2227 22.1779 53.2227C22.3181 53.2227 22.4221 53.2679 22.5125 53.3629C22.603 53.4578 22.6482 53.5754 22.6482 53.7156V58.713C22.6482 58.8532 22.603 58.9708 22.508 59.0658Z" fill="#3E4089"/>
<path d="M26.0284 58.4C26.0872 58.4724 26.1188 58.5674 26.1188 58.6849C26.1188 58.8297 26.042 58.9518 25.8837 59.0513C25.7254 59.1508 25.549 59.2005 25.3545 59.2005C25.0244 59.2005 24.7485 59.1282 24.5224 58.988C24.2963 58.8432 24.1832 58.5402 24.1832 58.0789V55.8493H23.8169C23.6902 55.8493 23.5817 55.8041 23.4958 55.7182C23.4098 55.6322 23.3691 55.5237 23.3691 55.3925C23.3691 55.2614 23.4098 55.1664 23.4958 55.0805C23.5817 54.9991 23.6857 54.9538 23.8169 54.9538H24.1832V54.4383C24.1832 54.2981 24.2284 54.1805 24.3234 54.0855C24.4184 53.9905 24.5314 53.9453 24.6716 53.9453C24.8118 53.9453 24.9158 53.9905 25.0063 54.0855C25.0968 54.1805 25.142 54.2981 25.142 54.4383V54.9538H25.7073C25.8339 54.9538 25.9425 54.9991 26.0284 55.085C26.1143 55.1709 26.155 55.2795 26.155 55.4061C26.155 55.5327 26.1143 55.6322 26.0284 55.7182C25.9425 55.7996 25.8385 55.8448 25.7073 55.8448H25.142V58.0337C25.142 58.1468 25.1691 58.2282 25.2279 58.2779C25.2867 58.3277 25.3681 58.3548 25.4676 58.3548C25.5083 58.3548 25.5671 58.3458 25.644 58.3231C25.7073 58.296 25.7706 58.2824 25.8294 58.2824C25.9063 58.2824 25.9696 58.3186 26.0329 58.391L26.0284 58.4Z" fill="#3E4089"/>
<path d="M30.3552 55.2894C30.5587 55.6151 30.6582 56.0673 30.6582 56.6417V58.713C30.6582 58.8532 30.613 58.9708 30.5226 59.0658C30.4321 59.1608 30.319 59.206 30.1788 59.206C30.0386 59.206 29.9256 59.1608 29.8351 59.0658C29.7447 58.9708 29.6994 58.8532 29.6994 58.713V56.6417C29.6994 56.3432 29.6406 56.1126 29.5276 55.9407C29.4145 55.7688 29.211 55.6874 28.9261 55.6874C28.6412 55.6874 28.397 55.7779 28.2296 55.9588C28.0623 56.1397 27.9764 56.3658 27.9764 56.6417V58.713C27.9764 58.8532 27.9311 58.9708 27.8407 59.0658C27.7502 59.1608 27.6372 59.206 27.497 59.206C27.3568 59.206 27.2437 59.1608 27.1532 59.0658C27.0628 58.9708 27.0176 58.8532 27.0176 58.713V53.7156C27.0176 53.5754 27.0628 53.4578 27.1532 53.3629C27.2437 53.2679 27.3568 53.2227 27.497 53.2227C27.6372 53.2227 27.7502 53.2679 27.8407 53.3629C27.9311 53.4578 27.9764 53.5754 27.9764 53.7156V55.502C28.1211 55.3075 28.302 55.1447 28.5236 55.0045C28.7452 54.8689 28.9894 54.7965 29.2608 54.7965C29.7854 54.7965 30.1517 54.9593 30.3507 55.2849L30.3552 55.2894Z" fill="#3E4089"/>
<path d="M39.1893 53.6799C39.2888 53.7749 39.3386 53.8924 39.3386 54.0326V58.7135C39.3386 58.8537 39.2933 58.9713 39.2029 59.0662C39.1124 59.1612 38.9949 59.2064 38.8456 59.2064C38.6964 59.2064 38.5742 59.1612 38.4838 59.0708C38.3888 58.9803 38.3436 58.8627 38.3436 58.7135V55.4572L37.0275 57.4924C36.9733 57.5557 36.9145 57.61 36.8421 57.6507C36.7743 57.6914 36.7019 57.7095 36.625 57.7049C36.5572 57.7095 36.4848 57.6914 36.417 57.6507C36.3492 57.61 36.2858 57.5557 36.2316 57.4924L34.9155 55.3804V58.709C34.9155 58.8537 34.8748 58.9713 34.7889 59.0662C34.703 59.1567 34.5944 59.2019 34.4542 59.2019C34.314 59.2019 34.2145 59.1567 34.1286 59.0617C34.0427 58.9667 34.002 58.8491 34.002 58.709V54.0281C34.002 53.8924 34.0517 53.7794 34.1512 53.6799C34.2507 53.5849 34.3683 53.5352 34.504 53.5352C34.5854 53.5352 34.6623 53.5532 34.7437 53.594C34.8251 53.6347 34.8839 53.6889 34.9291 53.7522L36.6657 56.4612L38.4521 53.7522C38.4928 53.6889 38.5516 53.6347 38.624 53.594C38.6964 53.5532 38.7687 53.5352 38.8411 53.5352C38.9722 53.5352 39.0898 53.5804 39.1893 53.6754V53.6799Z" fill="#3E4089"/>
<path d="M44.2548 54.9365C44.3453 55.0269 44.3905 55.1445 44.3905 55.2937V58.7128C44.3905 58.853 44.3453 58.9706 44.2548 59.0655C44.1644 59.1605 44.0513 59.2057 43.9111 59.2057C43.7709 59.2057 43.6578 59.1605 43.5719 59.0701C43.486 58.9796 43.4362 58.862 43.4317 58.7218C43.3006 58.8801 43.1197 59.0113 42.8935 59.1198C42.6674 59.2283 42.4277 59.2871 42.179 59.2871C41.8126 59.2871 41.4825 59.1922 41.184 59.0022C40.8855 58.8123 40.6503 58.5454 40.4785 58.2063C40.3066 57.8671 40.2207 57.4827 40.2207 57.0485C40.2207 56.6143 40.3066 56.2299 40.474 55.8862C40.6413 55.5425 40.8765 55.2757 41.1704 55.0857C41.4644 54.8958 41.79 54.8008 42.1473 54.8008C42.4006 54.8008 42.6403 54.846 42.8664 54.941C43.088 55.036 43.2779 55.1535 43.4317 55.3028V55.2937C43.4317 55.1535 43.4769 55.036 43.5674 54.941C43.6578 54.846 43.7709 54.8008 43.9111 54.8008C44.0513 54.8008 44.1644 54.846 44.2548 54.9365ZM43.1468 58.0163C43.3639 57.7585 43.4724 57.4374 43.4724 57.0485C43.4724 56.6595 43.3639 56.3385 43.1468 56.0761C42.9297 55.8138 42.6493 55.6872 42.3011 55.6872C41.9528 55.6872 41.6815 55.8184 41.4644 56.0761C41.2473 56.3339 41.1388 56.6595 41.1388 57.0485C41.1388 57.4374 41.2473 57.7585 41.4599 58.0163C41.677 58.2741 41.9574 58.4007 42.3011 58.4007C42.6448 58.4007 42.9297 58.2741 43.1468 58.0163Z" fill="#3E4089"/>
<path d="M48.8293 55.2892C49.0373 55.6148 49.1414 56.0671 49.1414 56.6415V58.7128C49.1414 58.853 49.0961 58.9706 49.0057 59.0655C48.9152 59.1605 48.8022 59.2057 48.662 59.2057C48.5218 59.2057 48.4087 59.1605 48.3183 59.0655C48.2278 58.9706 48.1826 58.853 48.1826 58.7128V56.6415C48.1826 56.343 48.1193 56.1123 47.9972 55.9405C47.875 55.7686 47.667 55.6872 47.3685 55.6872C47.07 55.6872 46.8168 55.7777 46.6449 55.9586C46.4685 56.1395 46.3826 56.3656 46.3826 56.6415V58.7128C46.3826 58.853 46.3374 58.9706 46.2469 59.0655C46.1565 59.1605 46.0434 59.2057 45.9032 59.2057C45.763 59.2057 45.6499 59.1605 45.5595 59.0655C45.469 58.9706 45.4238 58.853 45.4238 58.7128V55.3751C45.4238 55.2349 45.469 55.1174 45.5595 55.0224C45.6499 54.9274 45.763 54.8822 45.9032 54.8822C46.0434 54.8822 46.1565 54.9274 46.2469 55.0224C46.3374 55.1174 46.3826 55.2349 46.3826 55.3751V55.5108C46.5273 55.3164 46.7127 55.149 46.9434 55.0088C47.174 54.8686 47.4273 54.8008 47.7032 54.8008C48.2459 54.8008 48.6213 54.9636 48.8248 55.2892H48.8293Z" fill="#3E4089"/>
<path d="M53.9736 54.9365C54.064 55.0269 54.1092 55.1445 54.1092 55.2937V58.7128C54.1092 58.853 54.064 58.9706 53.9736 59.0655C53.8831 59.1605 53.7701 59.2057 53.6299 59.2057C53.4897 59.2057 53.3766 59.1605 53.2907 59.0701C53.2047 58.9796 53.155 58.862 53.1505 58.7218C53.0193 58.8801 52.8384 59.0113 52.6123 59.1198C52.3862 59.2283 52.1465 59.2871 51.8977 59.2871C51.5314 59.2871 51.2012 59.1922 50.9028 59.0022C50.6043 58.8123 50.3691 58.5454 50.1972 58.2063C50.0254 57.8671 49.9395 57.4827 49.9395 57.0485C49.9395 56.6143 50.0254 56.2299 50.1927 55.8862C50.36 55.5425 50.5952 55.2757 50.8892 55.0857C51.1832 54.8958 51.5088 54.8008 51.8661 54.8008C52.1193 54.8008 52.359 54.846 52.5851 54.941C52.8068 55.036 52.9967 55.1535 53.1505 55.3028V55.2937C53.1505 55.1535 53.1957 55.036 53.2861 54.941C53.3766 54.846 53.4897 54.8008 53.6299 54.8008C53.7701 54.8008 53.8831 54.846 53.9736 54.9365ZM52.8655 58.0163C53.0826 57.7585 53.1912 57.4374 53.1912 57.0485C53.1912 56.6595 53.0826 56.3385 52.8655 56.0761C52.6485 55.8138 52.3681 55.6872 52.0198 55.6872C51.6716 55.6872 51.4002 55.8184 51.1832 56.0761C50.9661 56.3339 50.8575 56.6595 50.8575 57.0485C50.8575 57.4374 50.9661 57.7585 51.1786 58.0163C51.3957 58.2741 51.6761 58.4007 52.0198 58.4007C52.3635 58.4007 52.6485 58.2741 52.8655 58.0163Z" fill="#3E4089"/>
<path d="M59.0126 54.9377C59.1031 55.0281 59.1483 55.1457 59.1483 55.295V58.8904C59.1483 59.5462 58.9493 60.0346 58.5468 60.3512C58.1443 60.6677 57.6378 60.826 57.0182 60.826C56.8599 60.826 56.6383 60.7989 56.3624 60.7446C56.082 60.6904 55.8875 60.6361 55.77 60.5818C55.5076 60.4688 55.381 60.3105 55.381 60.1115C55.381 60.0753 55.3901 60.0301 55.4036 59.9803C55.4353 59.8627 55.4895 59.7723 55.5664 59.709C55.6433 59.6457 55.7293 59.614 55.8152 59.614C55.8695 59.614 55.9192 59.623 55.9644 59.6366C55.987 59.6411 56.1182 59.6909 56.3579 59.7859C56.5976 59.8808 56.8192 59.926 57.0137 59.926C57.4071 59.926 57.7011 59.8446 57.8956 59.6864C58.09 59.5281 58.185 59.3019 58.185 59.0125V58.6236C58.0674 58.7909 57.891 58.9401 57.6559 59.0758C57.4207 59.2115 57.1674 59.2793 56.8961 59.2793C56.5252 59.2793 56.186 59.1844 55.8785 58.9944C55.571 58.8045 55.3313 58.5376 55.1549 58.1984C54.9785 57.8593 54.8926 57.4748 54.8926 57.0407C54.8926 56.6065 54.9785 56.2221 55.1504 55.8784C55.3222 55.5347 55.5619 55.2678 55.8604 55.0779C56.1589 54.8879 56.4936 54.793 56.8599 54.793C57.1313 54.793 57.3845 54.8472 57.6152 54.9648C57.8503 55.0779 58.0358 55.2136 58.1805 55.3764V55.2859C58.1805 55.1457 58.2257 55.0281 58.3161 54.9332C58.4066 54.8382 58.5197 54.793 58.6599 54.793C58.8001 54.793 58.9131 54.8382 59.0036 54.9286L59.0126 54.9377ZM57.8956 58.0175C58.1217 57.7597 58.2347 57.4387 58.2347 57.0497C58.2347 56.6608 58.1217 56.3397 57.8956 56.0774C57.6694 55.8196 57.38 55.6884 57.0227 55.6884C56.6654 55.6884 56.376 55.8196 56.1544 56.0774C55.9328 56.3352 55.8197 56.6608 55.8197 57.0497C55.8197 57.4387 55.9328 57.7597 56.1544 58.0175C56.376 58.2753 56.6654 58.402 57.0227 58.402C57.38 58.402 57.6694 58.2753 57.8956 58.0175Z" fill="#3E4089"/>
<path d="M63.8593 57.261C63.7643 57.3425 63.6512 57.3832 63.5246 57.3832H60.8925C60.9558 57.6997 61.1005 57.9485 61.3312 58.1294C61.5573 58.3103 61.8151 58.4007 62.1045 58.4007C62.3216 58.4007 62.4935 58.3826 62.6156 58.3419C62.7377 58.3012 62.8327 58.2605 62.905 58.2108C62.9774 58.1656 63.0271 58.1339 63.0543 58.1158C63.1492 58.0661 63.2397 58.0434 63.3256 58.0434C63.4387 58.0434 63.5337 58.0842 63.6105 58.1656C63.6874 58.247 63.7281 58.3419 63.7281 58.446C63.7281 58.5907 63.6512 58.7218 63.5065 58.8439C63.3573 58.966 63.1583 59.0746 62.9096 59.1605C62.6608 59.2464 62.4075 59.2917 62.1543 59.2917C61.7065 59.2917 61.3176 59.1967 60.9875 59.0067C60.6528 58.8168 60.3995 58.559 60.2186 58.2289C60.0377 57.8987 59.9473 57.5234 59.9473 57.1073C59.9473 56.6415 60.0422 56.2389 60.2322 55.8862C60.4221 55.5334 60.6754 55.2666 60.9875 55.0812C61.2995 54.8958 61.6342 54.8008 61.9915 54.8008C62.3487 54.8008 62.6744 54.8957 62.9819 55.0902C63.2894 55.2847 63.5427 55.547 63.7281 55.8726C63.9136 56.2028 64.0085 56.5555 64.0085 56.94C64.004 57.0711 63.9543 57.1751 63.8593 57.2565V57.261ZM60.9015 56.5736H62.991V56.5193C62.9683 56.2932 62.8598 56.0988 62.6653 55.9359C62.4709 55.7731 62.2447 55.6917 61.996 55.6917C61.3809 55.6917 61.0146 55.9857 60.906 56.5736H60.9015Z" fill="#3E4089"/>
<path d="M70.8183 55.2892C71.0219 55.6148 71.1213 56.0671 71.1213 56.6415V58.7128C71.1213 58.853 71.0761 58.9706 70.9857 59.0655C70.8952 59.1605 70.7821 59.2057 70.642 59.2057C70.5018 59.2057 70.3887 59.1605 70.2982 59.0655C70.2078 58.9706 70.1626 58.853 70.1626 58.7128V56.6415C70.1626 56.343 70.1038 56.1123 69.9907 55.9405C69.8776 55.7686 69.6741 55.6872 69.3892 55.6872C69.1043 55.6872 68.8601 55.7777 68.6927 55.9586C68.5254 56.1395 68.4395 56.3656 68.4395 56.6415V58.7128C68.4395 58.853 68.3943 58.9706 68.3038 59.0655C68.2134 59.1605 68.1003 59.2057 67.9601 59.2057C67.8199 59.2057 67.7068 59.1605 67.6164 59.0655C67.5259 58.9706 67.4807 58.853 67.4807 58.7128V56.6415C67.4807 56.343 67.4219 56.1123 67.3088 55.9405C67.1958 55.7686 66.9922 55.6872 66.7073 55.6872C66.4224 55.6872 66.1782 55.7777 66.0109 55.9586C65.8435 56.1395 65.7576 56.3656 65.7576 56.6415V58.7128C65.7576 58.853 65.7124 58.9706 65.6219 59.0655C65.5315 59.1605 65.4184 59.2057 65.2782 59.2057C65.138 59.2057 65.0249 59.1605 64.9345 59.0655C64.844 58.9706 64.7988 58.853 64.7988 58.7128V55.3751C64.7988 55.2349 64.844 55.1174 64.9345 55.0224C65.0249 54.9274 65.138 54.8822 65.2782 54.8822C65.4184 54.8822 65.5315 54.9274 65.6219 55.0224C65.7124 55.1174 65.7576 55.2349 65.7576 55.3751V55.5063C65.9023 55.3118 66.0832 55.149 66.3048 55.0088C66.5264 54.8731 66.7707 54.8008 67.042 54.8008C67.7114 54.8008 68.141 55.0993 68.3264 55.6917C68.4485 55.4656 68.634 55.2621 68.8782 55.0766C69.1269 54.8957 69.4073 54.8008 69.7194 54.8008C70.244 54.8008 70.6103 54.9636 70.8093 55.2892H70.8183Z" fill="#3E4089"/>
<path d="M75.8358 57.261C75.7408 57.3425 75.6278 57.3832 75.5012 57.3832H72.869C72.9323 57.6997 73.0771 57.9485 73.3077 58.1294C73.5339 58.3103 73.7962 58.4007 74.0811 58.4007C74.2982 58.4007 74.47 58.3826 74.5921 58.3419C74.7142 58.3012 74.8092 58.2605 74.8816 58.2108C74.9539 58.1656 75.0037 58.1339 75.0308 58.1158C75.1258 58.0661 75.2162 58.0434 75.3022 58.0434C75.4152 58.0434 75.5102 58.0842 75.5871 58.1656C75.6685 58.247 75.7047 58.3419 75.7047 58.446C75.7047 58.5907 75.6323 58.7218 75.4831 58.8439C75.3338 58.966 75.1348 59.0746 74.8861 59.1605C74.6374 59.2464 74.3841 59.2917 74.1308 59.2917C73.6831 59.2917 73.2942 59.1967 72.964 59.0067C72.6339 58.8168 72.3761 58.559 72.1952 58.2289C72.0143 57.8987 71.9238 57.5234 71.9238 57.1073C71.9238 56.6415 72.0188 56.2389 72.2088 55.8862C72.3987 55.538 72.652 55.2666 72.964 55.0812C73.2761 54.8958 73.6107 54.8008 73.968 54.8008C74.3253 54.8008 74.6509 54.8957 74.9585 55.0902C75.266 55.2847 75.5192 55.547 75.7047 55.8726C75.8901 56.2028 75.9851 56.5555 75.9851 56.94C75.9805 57.0711 75.9308 57.1751 75.8358 57.2565V57.261ZM72.8781 56.5736H74.9675V56.5193C74.9449 56.2932 74.8364 56.0988 74.6419 55.9359C74.4474 55.7731 74.2213 55.6917 73.9725 55.6917C73.3575 55.6917 72.9911 55.9857 72.8826 56.5736H72.8781Z" fill="#3E4089"/>
<path d="M80.1887 55.2892C80.3967 55.6148 80.5008 56.0671 80.5008 56.6415V58.7128C80.5008 58.853 80.4555 58.9706 80.3651 59.0655C80.2746 59.1605 80.1615 59.2057 80.0213 59.2057C79.8811 59.2057 79.7681 59.1605 79.6776 59.0655C79.5872 58.9706 79.5419 58.853 79.5419 58.7128V56.6415C79.5419 56.343 79.4786 56.1123 79.3565 55.9405C79.2344 55.7686 79.0264 55.6872 78.7279 55.6872C78.4294 55.6872 78.1762 55.7777 78.0043 55.9586C77.8279 56.1395 77.742 56.3656 77.742 56.6415V58.7128C77.742 58.853 77.6968 58.9706 77.6063 59.0655C77.5159 59.1605 77.4028 59.2057 77.2626 59.2057C77.1224 59.2057 77.0093 59.1605 76.9189 59.0655C76.8284 58.9706 76.7832 58.853 76.7832 58.7128V55.3751C76.7832 55.2349 76.8284 55.1174 76.9189 55.0224C77.0093 54.9274 77.1224 54.8822 77.2626 54.8822C77.4028 54.8822 77.5159 54.9274 77.6063 55.0224C77.6968 55.1174 77.742 55.2349 77.742 55.3751V55.5108C77.8867 55.3164 78.0721 55.149 78.3028 55.0088C78.5334 54.8686 78.7867 54.8008 79.0626 54.8008C79.6053 54.8008 79.9807 54.9636 80.1842 55.2892H80.1887Z" fill="#3E4089"/>
<path d="M83.794 58.4C83.8528 58.4724 83.8845 58.5674 83.8845 58.6849C83.8845 58.8297 83.8076 58.9518 83.6493 59.0513C83.491 59.1508 83.3146 59.2005 83.1202 59.2005C82.79 59.2005 82.5141 59.1282 82.288 58.988C82.0619 58.8432 81.9488 58.5402 81.9488 58.0789V55.8493H81.5825C81.4559 55.8493 81.3473 55.8041 81.2614 55.7182C81.1755 55.6322 81.1348 55.5237 81.1348 55.3925C81.1348 55.2614 81.1755 55.1664 81.2614 55.0805C81.3473 54.9991 81.4513 54.9538 81.5825 54.9538H81.9488V54.4383C81.9488 54.2981 81.994 54.1805 82.089 54.0855C82.184 53.9905 82.2971 53.9453 82.4373 53.9453C82.5775 53.9453 82.6815 53.9905 82.7719 54.0855C82.8624 54.1805 82.9076 54.2981 82.9076 54.4383V54.9538H83.4729C83.5995 54.9538 83.7081 54.9991 83.794 55.085C83.88 55.1709 83.9206 55.2795 83.9206 55.4061C83.9206 55.5327 83.88 55.6322 83.794 55.7182C83.7081 55.7996 83.6041 55.8448 83.4729 55.8448H82.9076V58.0337C82.9076 58.1468 82.9347 58.2282 82.9935 58.2779C83.0523 58.3277 83.1337 58.3548 83.2332 58.3548C83.2739 58.3548 83.3327 58.3458 83.4096 58.3231C83.4729 58.296 83.5362 58.2824 83.595 58.2824C83.6719 58.2824 83.7352 58.3186 83.7986 58.391L83.794 58.4Z" fill="#3E4089"/>
<defs>
<clipPath id="clip0_0_1827">
<rect width="82.6429" height="60.319" fill="white" transform="translate(0.923828 0.675903)"/>
</clipPath>
</defs>
</svg>
