<svg width="216" height="158" viewBox="0 0 216 158" fill="none" xmlns="http://www.w3.org/2000/svg">
  <g clip-path="url(#clip0_0_1952)">
    <path d="M122.419 77.3604H113.736V114.243H122.419V77.3604Z" fill="white"/>
    <path d="M140.246 93.5812C138.875 93.5812 137.765 92.4825 137.765 91.1357V81.8737C137.859 78.424 142.987 78.4122 143.081 81.8737V88.962H147.594V84.0828C147.204 74.7263 133.642 74.7263 133.252 84.0828V92.7188C133.264 93.3213 133.465 95.117 135.201 95.9321C134.315 96.3574 133.252 97.2553 133.252 99.1809V107.722C133.642 117.079 147.204 117.079 147.594 107.722V98.0468H150.618V93.5812H140.246ZM140.435 112.554C138.97 112.554 137.777 111.373 137.777 109.932V100.492C137.777 99.1455 138.887 98.0468 140.258 98.0468H143.093V109.943C143.093 111.385 141.9 112.566 140.435 112.566" fill="white"/>
    <path d="M9.97026 114.241C9.95845 97.9024 8.90701 75.7042 16.6923 62.7562C17.6256 61.1023 19.0197 61.1377 19.953 62.8035C26.4624 74.192 26.9704 92.8461 26.6041 114.241H35.6417V98.7057C35.6417 77.3109 26.8522 66.0759 21.7605 61.3622C19.8348 59.5783 16.905 59.5428 14.9675 61.3149C0.223846 75.0544 0.88542 96.0003 0.932675 114.241H9.97026Z" fill="white"/>
    <path d="M55.5991 114.241V88.7349C55.5991 84.4701 58.8597 81.0086 62.8646 81.0086C66.8695 81.0086 70.1183 84.4583 70.1183 88.7231V114.253H79.2386V88.7467C79.2386 84.4819 82.4992 81.0204 86.5041 81.0204C90.509 81.0204 93.7578 84.4701 93.7578 88.7349V114.265H102.878V94.5C102.961 79.1184 84.9565 71.0496 74.6784 82.4735C64.3886 71.0496 46.3961 79.1302 46.4788 94.5V114.265H55.5991V114.241Z" fill="white"/>
    <path d="M168.634 114.243V71.5713C168.634 67.342 171.895 63.9042 175.9 63.9042C179.905 63.9042 183.153 67.3302 183.153 71.5477V114.231H192.285V71.5595C192.285 67.3302 195.546 63.8924 199.551 63.8924C203.556 63.8924 206.805 67.3184 206.805 71.5359V114.219H215.925V77.242C216.008 61.9903 198.015 53.9924 187.725 65.31C177.435 53.9805 159.443 61.9903 159.526 77.242V114.219H168.646L168.634 114.243Z" fill="white"/>
    <path d="M20.5819 89.4334C19.306 90.7093 17.2504 90.7093 15.9745 89.4334C14.6986 88.1576 14.6986 86.102 15.9745 84.8261C17.2504 83.5502 19.306 83.5502 20.5819 84.8261C21.8578 86.102 21.8578 88.1576 20.5819 89.4334Z" fill="#85B658"/>
    <path d="M114.197 61.6007C116.312 59.486 119.75 59.486 121.865 61.6007C123.979 63.7153 123.979 67.1532 121.865 69.2678C119.75 71.3825 116.312 71.3825 114.197 69.2678C112.083 67.1532 112.083 63.7153 114.197 61.6007Z" fill="#3F469D"/>
    <path d="M125.735 35.8444C128.275 33.3045 132.398 33.3045 134.938 35.8444C137.478 38.3844 137.478 42.5074 134.938 45.0474C132.398 47.5874 128.275 47.5874 125.735 45.0474C123.195 42.5074 123.195 38.3844 125.735 35.8444Z" fill="#AB7BA5"/>
    <path d="M149.117 14.556C152.082 11.5907 156.89 11.5907 159.855 14.556C162.821 17.5213 162.821 22.3295 159.855 25.2948C156.89 28.26 152.082 28.26 149.117 25.2948C146.151 22.3295 146.151 17.5213 149.117 14.556Z" fill="#DF6580"/>
    <path d="M181.631 3.21578C185.021 -0.174791 190.515 -0.174791 193.905 3.21578C197.296 6.60635 197.296 12.0998 193.905 15.4904C190.515 18.8809 185.021 18.8809 181.631 15.4904C178.24 12.0998 178.24 6.60635 181.631 3.21578Z" fill="#CB1B3C"/>
    <path d="M35.184 61.812C33.8372 63.1587 31.6635 63.1587 30.3167 61.812C28.9699 60.4652 28.9699 58.2914 30.3167 56.9447C31.6635 55.5979 33.8372 55.5979 35.184 56.9447C36.5308 58.2914 36.5308 60.4652 35.184 61.812Z" fill="#27B462"/>
    <path d="M49.7423 43.0529C51.2309 41.5644 53.6291 41.5644 55.1176 43.0529C56.5943 44.5415 56.5943 46.9397 55.1176 48.4164C53.6291 49.905 51.2309 49.905 49.7423 48.4164C48.2656 46.9279 48.2656 44.5297 49.7423 43.0529Z" fill="#00B2D4"/>
    <path d="M73.1127 38.4106C74.8021 36.7212 77.5547 36.7212 79.2441 38.4106C80.9335 40.1 80.9335 42.8526 79.2441 44.542C77.5547 46.2313 74.8021 46.2313 73.1127 44.542C71.4234 42.8526 71.4234 40.1 73.1127 38.4106Z" fill="#0098D2"/>
    <path d="M96.7332 44.3523C98.6352 42.4503 101.73 42.4503 103.632 44.3523C105.534 46.2543 105.534 49.3496 103.632 51.2516C101.73 53.1536 98.6352 53.1536 96.7332 51.2516C94.8311 49.3496 94.8311 46.2543 96.7332 44.3523Z" fill="#4189C5"/>
    <path d="M143.379 138.116C143.627 138.352 143.745 138.659 143.745 139.037C143.745 139.416 143.627 139.723 143.379 139.947C143.131 140.172 142.812 140.29 142.422 140.29H139.008V151.832C139.008 152.21 138.866 152.529 138.595 152.789C138.323 153.049 137.98 153.179 137.579 153.179C137.177 153.179 136.834 153.049 136.574 152.789C136.315 152.529 136.185 152.21 136.185 151.832V140.29H132.77C132.381 140.29 132.062 140.172 131.813 139.935C131.565 139.699 131.447 139.392 131.447 139.014C131.447 138.636 131.577 138.34 131.825 138.104C132.073 137.868 132.392 137.75 132.77 137.75H142.422C142.812 137.75 143.131 137.868 143.379 138.104V138.116Z" fill="white"/>
    <path d="M152.946 141.554C153.241 141.802 153.395 142.097 153.395 142.44C153.395 142.901 153.277 143.231 153.052 143.468C152.816 143.692 152.544 143.81 152.225 143.81C152.013 143.81 151.765 143.763 151.481 143.657C151.434 143.645 151.339 143.609 151.186 143.574C151.032 143.527 150.867 143.503 150.701 143.503C150.323 143.503 149.969 143.621 149.615 143.857C149.272 144.094 148.977 144.448 148.752 144.921C148.528 145.393 148.421 145.972 148.421 146.634V151.855C148.421 152.233 148.303 152.552 148.055 152.812C147.807 153.072 147.5 153.202 147.122 153.202C146.744 153.202 146.437 153.072 146.188 152.812C145.94 152.552 145.822 152.233 145.822 151.855V142.759C145.822 142.381 145.94 142.062 146.188 141.802C146.437 141.542 146.744 141.412 147.122 141.412C147.5 141.412 147.807 141.542 148.055 141.802C148.303 142.062 148.421 142.381 148.421 142.759V143.042C148.752 142.44 149.236 141.979 149.851 141.66C150.477 141.341 151.138 141.188 151.847 141.188C152.284 141.188 152.651 141.317 152.946 141.566V141.554Z" fill="white"/>
    <path d="M165.579 141.555C165.827 141.803 165.945 142.122 165.945 142.524V151.845C165.945 152.223 165.827 152.542 165.579 152.802C165.331 153.062 165.024 153.192 164.645 153.192C164.267 153.192 163.96 153.062 163.724 152.813C163.488 152.565 163.358 152.246 163.346 151.868C162.98 152.294 162.495 152.66 161.881 152.955C161.267 153.251 160.617 153.404 159.932 153.404C158.928 153.404 158.03 153.144 157.215 152.624C156.399 152.105 155.761 151.384 155.289 150.451C154.816 149.529 154.58 148.478 154.58 147.296C154.58 146.115 154.816 145.064 155.277 144.13C155.738 143.197 156.376 142.476 157.179 141.945C157.982 141.413 158.868 141.165 159.837 141.165C160.534 141.165 161.184 141.295 161.787 141.555C162.401 141.815 162.909 142.134 163.334 142.535V142.512C163.334 142.134 163.452 141.815 163.7 141.555C163.948 141.295 164.256 141.165 164.634 141.165C165.012 141.165 165.319 141.295 165.567 141.543L165.579 141.555ZM162.566 149.931C163.157 149.234 163.452 148.36 163.452 147.296C163.452 146.233 163.157 145.359 162.566 144.65C161.976 143.941 161.208 143.587 160.263 143.587C159.317 143.587 158.573 143.941 157.982 144.65C157.392 145.359 157.096 146.233 157.096 147.296C157.096 148.36 157.392 149.234 157.971 149.931C158.561 150.628 159.317 150.982 160.263 150.982C161.208 150.982 161.976 150.628 162.566 149.931Z" fill="white"/>
    <path d="M168.864 139.724C168.663 139.559 168.557 139.275 168.557 138.862V138.448C168.557 138.035 168.663 137.751 168.887 137.586C169.1 137.421 169.454 137.338 169.927 137.338C170.435 137.338 170.789 137.421 170.99 137.586C171.191 137.751 171.297 138.035 171.297 138.448V138.862C171.297 139.287 171.191 139.583 170.978 139.736C170.766 139.89 170.411 139.972 169.903 139.972C169.395 139.972 169.065 139.89 168.864 139.724ZM170.86 152.802C170.612 153.062 170.305 153.192 169.927 153.192C169.549 153.192 169.242 153.062 168.994 152.802C168.746 152.542 168.628 152.223 168.628 151.845V142.749C168.628 142.371 168.746 142.052 168.994 141.792C169.242 141.532 169.549 141.402 169.927 141.402C170.305 141.402 170.612 141.532 170.86 141.792C171.108 142.052 171.227 142.371 171.227 142.749V151.845C171.227 152.223 171.108 152.542 170.86 152.802Z" fill="white"/>
    <path d="M183.182 142.513C183.749 143.399 184.032 144.627 184.032 146.199V151.846C184.032 152.224 183.914 152.543 183.666 152.803C183.418 153.062 183.111 153.192 182.733 153.192C182.355 153.192 182.048 153.062 181.8 152.803C181.552 152.543 181.433 152.224 181.433 151.846V146.199C181.433 145.395 181.268 144.757 180.937 144.297C180.606 143.836 180.028 143.6 179.224 143.6C178.421 143.6 177.724 143.848 177.251 144.332C176.779 144.828 176.531 145.443 176.531 146.199V151.846C176.531 152.224 176.413 152.543 176.164 152.803C175.916 153.062 175.609 153.192 175.231 153.192C174.853 153.192 174.546 153.062 174.298 152.803C174.05 152.543 173.932 152.224 173.932 151.846V142.749C173.932 142.371 174.05 142.052 174.298 141.792C174.546 141.532 174.853 141.402 175.231 141.402C175.609 141.402 175.916 141.532 176.164 141.792C176.413 142.052 176.531 142.371 176.531 142.749V143.127C176.921 142.595 177.429 142.146 178.066 141.757C178.704 141.367 179.39 141.178 180.146 141.178C181.622 141.178 182.638 141.627 183.205 142.513H183.182Z" fill="white"/>
    <path d="M186.934 139.724C186.733 139.559 186.627 139.275 186.627 138.862V138.448C186.627 138.035 186.733 137.751 186.958 137.586C187.17 137.421 187.525 137.338 187.997 137.338C188.505 137.338 188.86 137.421 189.061 137.586C189.261 137.751 189.368 138.035 189.368 138.448V138.862C189.368 139.287 189.261 139.583 189.049 139.736C188.836 139.89 188.482 139.972 187.974 139.972C187.466 139.972 187.135 139.89 186.934 139.724ZM188.931 152.802C188.683 153.062 188.375 153.192 187.997 153.192C187.619 153.192 187.312 153.062 187.064 152.802C186.816 152.542 186.698 152.223 186.698 151.845V142.749C186.698 142.371 186.816 142.052 187.064 141.792C187.312 141.532 187.619 141.402 187.997 141.402C188.375 141.402 188.683 141.532 188.931 141.792C189.179 142.052 189.297 142.371 189.297 142.749V151.845C189.297 152.223 189.179 152.542 188.931 152.802Z" fill="white"/>
    <path d="M201.26 142.513C201.827 143.399 202.111 144.627 202.111 146.199V151.846C202.111 152.224 201.992 152.543 201.744 152.803C201.496 153.062 201.189 153.192 200.811 153.192C200.433 153.192 200.126 153.062 199.878 152.803C199.63 152.543 199.512 152.224 199.512 151.846V146.199C199.512 145.395 199.346 144.757 199.015 144.297C198.685 143.836 198.106 143.6 197.302 143.6C196.499 143.6 195.802 143.848 195.329 144.332C194.857 144.828 194.609 145.443 194.609 146.199V151.846C194.609 152.224 194.491 152.543 194.243 152.803C193.994 153.062 193.687 153.192 193.309 153.192C192.931 153.192 192.624 153.062 192.376 152.803C192.128 152.543 192.01 152.224 192.01 151.846V142.749C192.01 142.371 192.128 142.052 192.376 141.792C192.624 141.532 192.931 141.402 193.309 141.402C193.687 141.402 193.994 141.532 194.243 141.792C194.491 142.052 194.609 142.371 194.609 142.749V143.127C194.999 142.595 195.507 142.146 196.145 141.757C196.783 141.367 197.468 141.178 198.224 141.178C199.701 141.178 200.717 141.627 201.284 142.513H201.26Z" fill="white"/>
    <path d="M215.483 141.556C215.731 141.804 215.849 142.123 215.849 142.525V152.33C215.849 154.126 215.306 155.449 214.207 156.311C213.108 157.174 211.726 157.599 210.048 157.599C209.611 157.599 209.021 157.528 208.253 157.375C207.497 157.233 206.953 157.079 206.634 156.937C205.925 156.63 205.571 156.205 205.571 155.661C205.571 155.555 205.595 155.437 205.642 155.307C205.724 154.988 205.878 154.74 206.091 154.575C206.303 154.409 206.528 154.327 206.776 154.327C206.918 154.327 207.059 154.35 207.189 154.397C207.248 154.409 207.603 154.551 208.264 154.811C208.926 155.071 209.517 155.201 210.06 155.201C211.135 155.201 211.927 154.988 212.458 154.551C212.99 154.114 213.25 153.5 213.25 152.708V151.645C212.931 152.106 212.447 152.507 211.809 152.873C211.159 153.24 210.474 153.429 209.729 153.429C208.713 153.429 207.792 153.169 206.965 152.649C206.126 152.129 205.476 151.409 205.004 150.475C204.531 149.554 204.283 148.502 204.283 147.321C204.283 146.14 204.519 145.088 204.992 144.155C205.465 143.222 206.103 142.501 206.929 141.969C207.756 141.438 208.654 141.19 209.658 141.19C210.403 141.19 211.088 141.343 211.726 141.65C212.364 141.957 212.872 142.335 213.274 142.773V142.525C213.274 142.146 213.392 141.827 213.64 141.568C213.888 141.308 214.195 141.178 214.573 141.178C214.951 141.178 215.258 141.308 215.506 141.556H215.483ZM212.435 149.932C213.049 149.235 213.356 148.361 213.356 147.297C213.356 146.234 213.049 145.36 212.435 144.651C211.82 143.942 211.029 143.588 210.06 143.588C209.091 143.588 208.3 143.942 207.697 144.651C207.095 145.36 206.788 146.234 206.788 147.297C206.788 148.361 207.095 149.235 207.697 149.932C208.312 150.629 209.091 150.983 210.06 150.983C211.029 150.983 211.82 150.629 212.435 149.932Z" fill="white"/>
  </g>
  <defs>
    <clipPath id="clip0_0_1952">
      <rect width="215" height="156.923" fill="white" transform="translate(0.923828 0.675781)"/>
    </clipPath>
  </defs>
</svg>