<svg width="640" height="334" viewBox="0 0 640 334" fill="none" xmlns="http://www.w3.org/2000/svg">
<path d="M361.568 224.26H335.737V331.96H361.568V224.26Z" fill="#5056A5"/>
<path d="M414.689 271.629C412.748 271.641 410.881 270.897 409.498 269.56C408.114 268.224 407.327 266.404 407.309 264.499V237.435C407.582 227.355 422.867 227.333 423.14 237.435V258.152H436.556V243.916C435.395 216.583 395.054 216.583 393.893 243.916V269.126C393.879 271.062 394.413 272.964 395.434 274.621C396.455 276.278 397.924 277.625 399.678 278.512C397.85 279.338 396.319 280.687 395.286 282.382C394.254 284.078 393.768 286.04 393.893 288.011V312.93C395.054 340.285 435.417 340.285 436.556 312.93V284.658H445.668V271.629H414.689ZM415.236 327.032C413.15 327.044 411.144 326.244 409.658 324.807C408.172 323.37 407.327 321.413 407.309 319.366V291.788C407.318 290.843 407.517 289.908 407.894 289.039C408.27 288.169 408.818 287.381 409.506 286.719C410.193 286.056 411.007 285.534 411.9 285.18C412.793 284.827 413.749 284.649 414.712 284.658H423.14V319.389C423.122 321.43 422.28 323.381 420.798 324.813C419.316 326.246 417.316 327.044 415.236 327.032Z" fill="#5056A5"/>
<path d="M26.9555 331.963C26.9555 284.27 23.7894 219.435 46.932 181.621C49.711 176.793 53.7655 176.883 56.6356 181.755C75.997 215.01 77.5004 269.497 76.4298 331.963H103.308V286.594C103.308 224.017 77.136 191.298 61.9885 177.553C59.262 175.031 55.6646 173.613 51.9176 173.584C48.1706 173.555 44.5508 174.917 41.7841 177.397C-2.08673 217.625 -0.0822243 278.705 0.0544451 331.963H26.9555Z" fill="#5056A5"/>
<path d="M162.774 331.978V257.488C162.774 245.017 172.455 234.915 184.414 234.915C196.372 234.915 205.985 244.995 205.985 257.443V331.978H233.159V257.488C233.159 245.017 242.84 234.915 254.776 234.915C266.711 234.915 276.369 244.995 276.369 257.443V331.978H303.521V274.25C303.749 229.328 250.197 205.772 219.56 239.117C188.946 205.772 135.395 229.35 135.645 274.25V331.978H162.774Z" fill="#5056A5"/>
<path d="M499.116 331.967V207.371C499.116 201.74 501.396 196.34 505.454 192.358C509.512 188.376 515.016 186.139 520.755 186.139C526.494 186.139 531.998 188.376 536.057 192.358C540.115 196.34 542.395 201.74 542.395 207.371V332.012H569.569V207.371C569.569 201.74 571.849 196.34 575.907 192.358C579.965 188.376 585.469 186.139 591.208 186.139C596.947 186.139 602.452 188.376 606.51 192.358C610.568 196.34 612.848 201.74 612.848 207.371V332.012H639.999V223.999C640.227 179.457 586.675 156.102 556.062 189.156C525.425 156.08 471.896 179.457 472.124 223.999V331.967H499.116Z" fill="#5056A5"/>
<path d="M51.6998 262.292C57.0463 262.292 61.3805 258.039 61.3805 252.793C61.3805 247.547 57.0463 243.295 51.6998 243.295C46.3533 243.295 42.019 247.547 42.019 252.793C42.019 258.039 46.3533 262.292 51.6998 262.292Z" fill="#8DC63F"/>
<path d="M348.59 205.275C357.509 205.275 364.739 198.181 364.739 189.429C364.739 180.678 357.509 173.584 348.59 173.584C339.67 173.584 332.44 180.678 332.44 189.429C332.44 198.181 339.67 205.275 348.59 205.275Z" fill="#5056A5"/>
<path d="M385.139 135.47C395.832 135.47 404.5 126.965 404.5 116.473C404.5 105.982 395.832 97.4766 385.139 97.4766C374.446 97.4766 365.777 105.982 365.777 116.473C365.777 126.965 374.446 135.47 385.139 135.47Z" fill="#996598"/>
<path d="M457.043 78.7077C469.523 78.7077 479.639 68.7817 479.639 56.5374C479.639 44.2931 469.523 34.3671 457.043 34.3671C444.564 34.3671 434.447 44.2931 434.447 56.5374C434.447 68.7817 444.564 78.7077 457.043 78.7077Z" fill="#D24D70"/>
<path d="M556.09 51.0246C570.356 51.0246 581.92 39.6778 581.92 25.6807C581.92 11.6836 570.356 0.336792 556.09 0.336792C541.824 0.336792 530.259 11.6836 530.259 25.6807C530.259 39.6778 541.824 51.0246 556.09 51.0246Z" fill="#ED1B2F"/>
<path d="M94.6776 181.777C100.326 181.777 104.905 177.284 104.905 171.742C104.905 166.2 100.326 161.707 94.6776 161.707C89.0292 161.707 84.4502 166.2 84.4502 171.742C84.4502 177.284 89.0292 181.777 94.6776 181.777Z" fill="#35AA94"/>
<path d="M153.277 143.048C159.516 143.048 164.575 138.085 164.575 131.962C164.575 125.84 159.516 120.877 153.277 120.877C147.037 120.877 141.979 125.84 141.979 131.962C141.979 138.085 147.037 143.048 153.277 143.048Z" fill="#1EA0CA"/>
<path d="M224.05 132.143C231.183 132.143 236.965 126.469 236.965 119.471C236.965 112.472 231.183 106.799 224.05 106.799C216.917 106.799 211.135 112.472 211.135 119.471C211.135 126.469 216.917 132.143 224.05 132.143Z" fill="#0088CB"/>
<path d="M295.448 152.167C303.474 152.167 309.981 145.783 309.981 137.908C309.981 130.033 303.474 123.65 295.448 123.65C287.422 123.65 280.916 130.033 280.916 137.908C280.916 145.783 287.422 152.167 295.448 152.167Z" fill="#3777BC"/>
</svg>
