<svg width="95" height="91" viewBox="0 0 95 91" fill="none" xmlns="http://www.w3.org/2000/svg">
  <circle cx="25.3741" cy="31.4293" r="24.951" fill="#F4475C"/>
  <path d="M83.6058 75.2028L83.6054 75.2031L67.2614 87.4584C65.4417 88.8705 63.2547 89.5792 61.0634 89.5792C58.8723 89.5792 56.6688 88.8679 54.8379 87.4419L38.5133 75.2031L38.5129 75.2028C37.0276 74.0876 35.1837 73.4744 33.3275 73.4744H30.1983C29.0434 73.4744 28.1064 72.5375 28.1064 71.3826C28.1064 70.2277 29.0434 69.2907 30.1983 69.2907H33.3301C36.0898 69.2907 38.8188 70.1992 41.0234 71.8533C41.0234 71.8534 41.0235 71.8534 41.0235 71.8535L57.3724 84.1124L57.3781 84.1167L57.3838 84.1211C59.5546 85.8149 62.5648 85.8075 64.7205 84.1359L64.7301 84.1285L64.7301 84.1285L81.0979 71.8534L81.0984 71.853C81.3939 71.6318 81.6982 71.4247 82.0104 71.2313L63.9081 57.6577L60.8551 60.5803C59.4683 61.9639 57.5781 62.7397 55.6101 62.7397C53.0584 62.7397 50.8249 61.4061 49.5295 59.6075L83.6058 75.2028ZM83.6058 75.2028C85.0911 74.0876 86.935 73.4744 88.7912 73.4744H91.9231C93.078 73.4744 94.0149 72.5375 94.0149 71.3826C94.0149 70.2277 93.078 69.2907 91.9231 69.2907H88.7912C88.0677 69.2907 87.3477 69.3547 86.6404 69.4767L66.9707 54.7251M83.6058 75.2028L66.9707 54.7251M50.5471 49.7933L50.5552 49.7857L58.0944 42.687L56.0473 40.8227C56.0472 40.8226 56.0472 40.8225 56.0471 40.8224C53.4249 38.4366 49.293 38.0043 46.3252 39.4919L46.3246 39.4922L40.1119 42.5999L40.1118 42.6C38.3382 43.4867 36.3555 43.9539 34.3741 43.9539H30.1983C29.0434 43.9539 28.1064 43.017 28.1064 41.862C28.1064 40.7071 29.0434 39.7702 30.1983 39.7702H34.3741C35.7066 39.7702 37.0464 39.4539 38.2387 38.8591C38.2389 38.859 38.2391 38.8589 38.2392 38.8588L44.4501 35.752C44.4503 35.7519 44.4506 35.7518 44.4508 35.7517C46.212 34.867 48.1869 34.4028 50.1622 34.4028C53.4454 34.4028 56.5031 35.5841 58.8628 37.7298L58.8635 37.7305L61.1464 39.8118L63.2034 37.8755L63.2035 37.8754C67.026 34.2784 72.9958 33.41 77.6679 35.7517L83.8794 38.8588C83.8796 38.8589 83.8798 38.859 83.8799 38.8591C85.0722 39.4539 86.412 39.7702 87.7446 39.7702H91.9204C93.0753 39.7702 94.0122 40.7071 94.0122 41.862C94.0122 43.017 93.0753 43.9539 91.9204 43.9539H87.7446C85.7659 43.9539 83.7805 43.4868 82.0069 42.6L82.0068 42.5999L75.794 39.4922L75.7933 39.4918C72.6615 37.921 68.6295 38.5096 66.0702 40.9211L66.07 40.9213L53.4572 52.7966C52.2194 54.0414 52.0398 55.9369 52.9227 57.163C53.5136 57.9818 54.3666 58.4656 55.3376 58.5448C56.2971 58.6144 57.2442 58.2747 57.921 57.5957L57.9272 57.5895L57.9335 57.5834L69.1103 46.8842C69.9445 46.0836 71.271 46.1142 72.0694 46.9503L72.0695 46.9503C72.8638 47.7823 72.84 49.1076 72.0023 49.9078L72.0028 49.9074L71.4841 49.3656L72.0021 49.908L50.5471 49.7933ZM50.5471 49.7933L50.5393 49.8011M50.5471 49.7933L50.5393 49.8011M66.9707 54.7251L66.3626 54.269L66.9707 54.7251ZM50.5393 49.8011C47.8808 52.4567 47.4098 56.6646 49.5295 59.6074L50.5393 49.8011Z" fill="#2A2B6B" stroke="#2A2B6B" stroke-width="1.5"/>
</svg>