<svg width="1600" height="241" viewBox="0 0 1600 241" fill="none" xmlns="http://www.w3.org/2000/svg">
<path fill-rule="evenodd" clip-rule="evenodd" d="M539.522 39.5C530.632 16.0267 508.149 0.5 483.048 0.5H218.975C193.928 0.5 171.51 16.0433 162.726 39.5C153.942 62.9567 131.524 78.5 106.476 78.5H-99.0762C-102.79 78.5 -104.647 78.5 -106.217 78.5641C-146.276 80.1994 -178.377 112.3 -180.012 152.359C-180.076 153.929 -180.076 155.786 -180.076 159.5C-180.076 163.214 -180.076 165.071 -180.012 166.641C-178.377 206.7 -146.276 238.801 -106.217 240.436C-104.647 240.5 -102.79 240.5 -99.0761 240.5H1688.92C1692.64 240.5 1694.49 240.5 1696.06 240.436C1736.12 238.801 1768.22 206.7 1769.86 166.641C1769.92 165.071 1769.92 163.214 1769.92 159.5C1769.92 155.786 1769.92 153.929 1769.86 152.359C1768.22 112.3 1736.12 80.1994 1696.06 78.5641C1694.49 78.5 1692.64 78.5 1688.92 78.5H595.996C570.896 78.5 548.412 62.9733 539.522 39.5Z" fill="#F1F5F8"/>
</svg>
