<svg width="1204" height="1195" viewBox="0 0 1204 1195" fill="none" xmlns="http://www.w3.org/2000/svg">
<g opacity="0.2" filter="url(#filter0_f_61_1463)">
<path d="M602 973C811.868 973 982 804.883 982 597.5C982 390.117 811.868 222 602 222C392.132 222 222 390.117 222 597.5C222 804.883 392.132 973 602 973Z" fill="white"/>
<path d="M602 973C811.868 973 982 804.883 982 597.5C982 390.117 811.868 222 602 222C392.132 222 222 390.117 222 597.5C222 804.883 392.132 973 602 973Z" fill="url(#paint0_linear_61_1463)"/>
</g>
<defs>
<filter id="filter0_f_61_1463" x="0.399994" y="0.399994" width="1203.2" height="1194.2" filterUnits="userSpaceOnUse" color-interpolation-filters="sRGB">
<feFlood flood-opacity="0" result="BackgroundImageFix"/>
<feBlend mode="normal" in="SourceGraphic" in2="BackgroundImageFix" result="shape"/>
<feGaussianBlur stdDeviation="110.8" result="effect1_foregroundBlur_61_1463"/>
</filter>
<linearGradient id="paint0_linear_61_1463" x1="-432.894" y1="1660.09" x2="1211.99" y2="1033.05" gradientUnits="userSpaceOnUse">
<stop offset="0.04" stop-color="#292664" stop-opacity="0"/>
<stop offset="0.24" stop-color="#6B8ED2" stop-opacity="0.24"/>
<stop offset="0.43" stop-color="#5CBAFF"/>
<stop offset="0.75" stop-color="#E759AE"/>
<stop offset="0.99" stop-color="#F4475C"/>
</linearGradient>
</defs>
</svg>
